<svg width="62" height="20" viewBox="0 0 62 20" fill="none" xmlns="http://www.w3.org/2000/svg">
<path d="M32.0649 6.3939C32.0295 9.17984 34.5504 10.7346 36.4493 11.6589C38.4005 12.6074 39.0558 13.2155 39.0483 14.0636C39.0335 15.3617 37.4919 15.9345 36.0491 15.9569C33.532 15.9959 32.0686 15.278 30.9051 14.735L29.9984 18.9734C31.1657 19.5109 33.3272 19.9795 35.5687 20C40.83 20 44.2724 17.4056 44.291 13.3829C44.3115 8.27785 37.222 7.99516 37.2704 5.71322C37.2871 5.02139 37.9481 4.28306 39.3965 4.09522C40.1133 4.00037 42.0923 3.92784 44.3357 4.96001L45.2163 0.859215C44.0099 0.420309 42.4591 0 40.5284 0C35.5762 0 32.0928 2.62972 32.0649 6.3939ZM53.678 0.353355C52.7173 0.353355 51.9075 0.913149 51.5463 1.77236L44.0304 19.6987H49.288L50.3343 16.8105H56.7592L57.3661 19.6987H62L57.9563 0.353355H53.678ZM54.4134 5.57932L55.9307 12.8436H51.7753L54.4134 5.57932ZM25.6903 0.353355L21.546 19.6987H26.556L30.6984 0.353355H25.6903ZM18.2787 0.353355L13.0639 13.5206L10.9545 2.32472C10.7069 1.07495 9.72951 0.353355 8.64411 0.353355H0.119152L0 0.915007C1.75005 1.2944 3.73839 1.90627 4.94295 2.56091C5.6802 2.96076 5.89058 3.3104 6.1326 4.26074L10.1279 19.6987H15.4227L23.54 0.353355H18.2787Z" fill="white"/>
</svg>
